<?xml version="1.0" encoding="utf-8"?>
<!-- Generator: Adobe Illustrator 26.3.1, SVG Export Plug-In . SVG Version: 6.00 Build 0)  -->
<svg version="1.1" id="Layer_1" xmlns="http://www.w3.org/2000/svg" xmlns:xlink="http://www.w3.org/1999/xlink" x="0px" y="0px"
	 viewBox="0 0 512 512" style="enable-background:new 0 0 512 512;" xml:space="preserve">
<style type="text/css">
	.st0{clip-path:url(#SVGID_00000158017160650719146160000015468462177744755599_);}
	
		.st1{clip-path:url(#SVGID_00000036228073453067467740000007761481858367466897_);fill:url(#SVGID_00000091723910952855394150000011318910657602175879_);}
	
		.st2{clip-path:url(#SVGID_00000023996634213608505750000007945166515414764457_);fill:url(#SVGID_00000052089567356175302650000004648003598047659455_);}
</style>
<g>
	<g>
		<defs>
			<rect id="SVGID_1_" x="1" y="2" width="510" height="510"/>
		</defs>
		<clipPath id="SVGID_00000165915609488280601670000015971364651642702246_">
			<use xlink:href="#SVGID_1_"  style="overflow:visible;"/>
		</clipPath>
		<g style="clip-path:url(#SVGID_00000165915609488280601670000015971364651642702246_);">
			<defs>
				<path id="SVGID_00000160171211206843825930000016223094096416865208_" d="M50.47,257c0,37.37,9.98,72.4,27.4,102.59
					l48.36-174.06h101.75c13.78,0,24.55,3.01,32.33,9.01c9.89,7.42,14.84,19.61,14.84,36.57c0,6.01-0.36,10.78-1.06,14.31
					c-1.77,10.25-4.86,19.43-9.27,27.56c-4.42,8.13-9.1,13.78-14.04,16.96l76.98-0.11l53.03-196.14
					C346.18,67.21,302.93,51.47,256,51.47C142.49,51.47,50.47,143.49,50.47,257"/>
			</defs>
			<clipPath id="SVGID_00000150074846311086831150000015194164863130488448_">
				<use xlink:href="#SVGID_00000160171211206843825930000016223094096416865208_"  style="overflow:visible;"/>
			</clipPath>
			
				<radialGradient id="SVGID_00000037651277511837892610000002645296634838910127_" cx="-42.5468" cy="-167.4116" r="0.51" gradientTransform="matrix(385.6256 -2.1188 -2.1188 -385.6256 16312.2988 -64400.8672)" gradientUnits="userSpaceOnUse">
				<stop  offset="0" style="stop-color:#BAD977"/>
				<stop  offset="1" style="stop-color:#9DCB3C"/>
			</radialGradient>
			
				<polygon style="clip-path:url(#SVGID_00000150074846311086831150000015194164863130488448_);fill:url(#SVGID_00000037651277511837892610000002645296634838910127_);" points="
				48.78,51.48 380.77,49.66 382.47,359.59 50.48,361.41 			"/>
		</g>
		<g style="clip-path:url(#SVGID_00000165915609488280601670000015971364651642702246_);">
			<defs>
				<path id="SVGID_00000084520402467944047250000008350339355919446685_" d="M367.9,336.57H154.85l12.72-46.64H184
					c3.53,0,7.42-0.88,11.66-2.65c14.13-6,22.43-18.37,24.91-37.1c1.06-6.71-0.61-11.92-5.02-15.63c-4.41-3.71-9.94-5.56-16.63-5.56
					l-32.73,0.06l-50.08,178.51c36.69,34.1,85.85,54.97,139.89,54.97c113.51,0,205.53-92.02,205.53-205.53
					c0-45.48-14.79-87.51-39.8-121.56L367.9,336.57z"/>
			</defs>
			<clipPath id="SVGID_00000062164661414323508890000011463656022495335556_">
				<use xlink:href="#SVGID_00000084520402467944047250000008350339355919446685_"  style="overflow:visible;"/>
			</clipPath>
			
				<radialGradient id="SVGID_00000108996756060257195940000012113839223909334171_" cx="-42.5468" cy="-167.4116" r="0.51" gradientTransform="matrix(385.6256 -2.1188 -2.1188 -385.6256 16312.2988 -64400.8672)" gradientUnits="userSpaceOnUse">
				<stop  offset="0" style="stop-color:#BAD977"/>
				<stop  offset="1" style="stop-color:#9DCB3C"/>
			</radialGradient>
			
				<polygon style="clip-path:url(#SVGID_00000062164661414323508890000011463656022495335556_);fill:url(#SVGID_00000108996756060257195940000012113839223909334171_);" points="
				114.31,135.45 461.52,133.55 463.33,462.52 116.12,464.43 			"/>
		</g>
	</g>
</g>
</svg>
